<svg fill="none" height="42" viewBox="0 0 42 42" width="42" xmlns="http://www.w3.org/2000/svg" xmlns:xlink="http://www.w3.org/1999/xlink"><linearGradient id="a" gradientUnits="userSpaceOnUse" x1="21" x2="21" y1="0" y2="42"><stop offset="0" stop-color="#1fd1ff"/><stop offset="1" stop-color="#1bb8ff"/></linearGradient><radialGradient id="b" cx="0" cy="0" gradientTransform="matrix(47.49744756 -47.75613141 48.47061539 48.20806134 2.00623 40.4086)" gradientUnits="userSpaceOnUse" r="1"><stop offset="0" stop-color="#232de3"/><stop offset="1" stop-color="#232de3" stop-opacity="0"/></radialGradient><radialGradient id="c" cx="0" cy="0" gradientTransform="matrix(-31.51693249 -27.93289627 42.58984516 -48.05449681 39.7379 41.7602)" gradientUnits="userSpaceOnUse" r="1"><stop offset="0" stop-color="#8b4dff"/><stop offset="1" stop-color="#8b4dff" stop-opacity="0"/></radialGradient><radialGradient id="d" cx="0" cy="0" gradientTransform="matrix(0 33.1135 -80.3423 0 20.6501 .311498)" gradientUnits="userSpaceOnUse" r="1"><stop offset="0" stop-color="#24d5ff"/><stop offset="1" stop-color="#1bb8ff" stop-opacity="0"/></radialGradient><clipPath id="e"><path d="m0 0h42v42h-42z"/></clipPath><g clip-path="url(#e)"><path d="m32.4545 0h-22.90905c-5.2718 0-9.54545 4.27365-9.54545 9.54545v22.90905c0 5.2719 4.27365 9.5455 9.54545 9.5455h22.90905c5.2719 0 9.5455-4.2736 9.5455-9.5455v-22.90905c0-5.2718-4.2736-9.54545-9.5455-9.54545z" fill="url(#a)"/><path d="m32.4545 0h-22.90905c-5.2718 0-9.54545 4.27365-9.54545 9.54545v22.90905c0 5.2719 4.27365 9.5455 9.54545 9.5455h22.90905c5.2719 0 9.5455-4.2736 9.5455-9.5455v-22.90905c0-5.2718-4.2736-9.54545-9.5455-9.54545z" fill="url(#b)"/><path d="m32.4545 0h-22.90905c-5.2718 0-9.54545 4.27365-9.54545 9.54545v22.90905c0 5.2719 4.27365 9.5455 9.54545 9.5455h22.90905c5.2719 0 9.5455-4.2736 9.5455-9.5455v-22.90905c0-5.2718-4.2736-9.54545-9.5455-9.54545z" fill="url(#c)"/><path d="m32.4545 0h-22.90905c-5.2718 0-9.54545 4.27365-9.54545 9.54545v22.90905c0 5.2719 4.27365 9.5455 9.54545 9.5455h22.90905c5.2719 0 9.5455-4.2736 9.5455-9.5455v-22.90905c0-5.2718-4.2736-9.54545-9.5455-9.54545z" fill="url(#d)"/><path d="m17.2526 32.2614v-9.7422l9.4659 9.7422h5.2664v-.2535l-10.8885-11.0957 10.0505-10.5265v-.1243h-5.3005l-8.5938 9.3021v-9.3021h-4.2677v22z" fill="#fff"/></g></svg>